<?xml version="1.0" encoding="UTF-8" standalone="no"?>
<!DOCTYPE svg PUBLIC "-//W3C//DTD SVG 1.1//EN"
 "http://www.w3.org/Graphics/SVG/1.1/DTD/svg11.dtd">
<!-- Generated by graphviz version 5.0.0 (20220707.1540)
 -->
<!-- Title: dependencies Pages: 1 -->
<svg width="2055pt" height="323pt"
 viewBox="0.00 0.00 2055.00 322.80" xmlns="http://www.w3.org/2000/svg" xmlns:xlink="http://www.w3.org/1999/xlink">
<g id="graph0" class="graph" transform="scale(1 1) rotate(0) translate(4 318.8)">
<title>dependencies</title>
<polygon fill="white" stroke="transparent" points="-4,4 -4,-318.8 2051,-318.8 2051,4 -4,4"/>
<text text-anchor="middle" x="1023.5" y="-8.2" font-family="sans-serif" font-size="14.00">dependencies</text>
<g id="clust1" class="cluster">
<title>cluster_AppModule</title>
<polygon fill="none" stroke="black" stroke-dasharray="1,5" points="8,-108.8 8,-306.8 2039,-306.8 2039,-108.8 8,-108.8"/>
</g>
<g id="clust2" class="cluster">
<title>cluster_AppModule_declarations</title>
<polygon fill="none" stroke="black" points="420,-116.8 420,-168.8 2031,-168.8 2031,-116.8 420,-116.8"/>
</g>
<g id="clust14" class="cluster">
<title>cluster_AppModule_imports</title>
<polygon fill="none" stroke="black" points="268,-116.8 268,-168.8 412,-168.8 412,-116.8 268,-116.8"/>
</g>
<g id="clust16" class="cluster">
<title>cluster_AppModule_bootstrap</title>
<polygon fill="none" stroke="black" points="999,-246.8 999,-298.8 1123,-298.8 1123,-246.8 999,-246.8"/>
</g>
<g id="clust17" class="cluster">
<title>cluster_AppModule_providers</title>
<polygon fill="none" stroke="black" points="16,-116.8 16,-168.8 260,-168.8 260,-116.8 16,-116.8"/>
</g>
<g id="clust18" class="cluster">
<title>cluster_AppRoutingModule</title>
<polygon fill="none" stroke="black" stroke-dasharray="1,5" points="258,-32.8 258,-100.8 422,-100.8 422,-32.8 258,-32.8"/>
</g>
<g id="clust23" class="cluster">
<title>cluster_AppRoutingModule_providers</title>
<polygon fill="none" stroke="black" points="266,-40.8 266,-92.8 414,-92.8 414,-40.8 266,-40.8"/>
</g>
<!-- AppComponent -->
<g id="node1" class="node">
<title>AppComponent</title>
<polygon fill="#ffffb3" stroke="black" points="2022.94,-160.8 1917.06,-160.8 1917.06,-124.8 2022.94,-124.8 2022.94,-160.8"/>
<text text-anchor="middle" x="1970" y="-138.6" font-family="Times,serif" font-size="14.00">AppComponent</text>
</g>
<!-- AppModule -->
<g id="node12" class="node">
<title>AppModule</title>
<polygon fill="#8dd3c7" stroke="black" points="1102.66,-225.8 1099.66,-229.8 1078.66,-229.8 1075.66,-225.8 1019.34,-225.8 1019.34,-189.8 1102.66,-189.8 1102.66,-225.8"/>
<text text-anchor="middle" x="1061" y="-203.6" font-family="Times,serif" font-size="14.00">AppModule</text>
</g>
<!-- AppComponent&#45;&gt;AppModule -->
<g id="edge1" class="edge">
<title>AppComponent&#45;&gt;AppModule</title>
<path fill="none" stroke="black" d="M1970,-160.89C1970,-183.93 1970,-220.8 1970,-220.8 1970,-220.8 1112.72,-220.8 1112.72,-220.8"/>
<polygon fill="black" stroke="black" points="1112.72,-217.3 1102.72,-220.8 1112.72,-224.3 1112.72,-217.3"/>
</g>
<!-- DeletedTasksComponent -->
<g id="node2" class="node">
<title>DeletedTasksComponent</title>
<polygon fill="#ffffb3" stroke="black" points="1899.53,-160.8 1742.47,-160.8 1742.47,-124.8 1899.53,-124.8 1899.53,-160.8"/>
<text text-anchor="middle" x="1821" y="-138.6" font-family="Times,serif" font-size="14.00">DeletedTasksComponent</text>
</g>
<!-- DeletedTasksComponent&#45;&gt;AppModule -->
<g id="edge2" class="edge">
<title>DeletedTasksComponent&#45;&gt;AppModule</title>
<path fill="none" stroke="black" d="M1821,-160.84C1821,-182.46 1821,-215.8 1821,-215.8 1821,-215.8 1112.67,-215.8 1112.67,-215.8"/>
<polygon fill="black" stroke="black" points="1112.67,-212.3 1102.67,-215.8 1112.67,-219.3 1112.67,-212.3"/>
</g>
<!-- ErrorpageComponent -->
<g id="node3" class="node">
<title>ErrorpageComponent</title>
<polygon fill="#ffffb3" stroke="black" points="1724.8,-160.8 1587.2,-160.8 1587.2,-124.8 1724.8,-124.8 1724.8,-160.8"/>
<text text-anchor="middle" x="1656" y="-138.6" font-family="Times,serif" font-size="14.00">ErrorpageComponent</text>
</g>
<!-- ErrorpageComponent&#45;&gt;AppModule -->
<g id="edge3" class="edge">
<title>ErrorpageComponent&#45;&gt;AppModule</title>
<path fill="none" stroke="black" d="M1656,-161.02C1656,-181.17 1656,-210.8 1656,-210.8 1656,-210.8 1112.84,-210.8 1112.84,-210.8"/>
<polygon fill="black" stroke="black" points="1112.84,-207.3 1102.84,-210.8 1112.84,-214.3 1112.84,-207.3"/>
</g>
<!-- FavoriteTasksComponent -->
<g id="node4" class="node">
<title>FavoriteTasksComponent</title>
<polygon fill="#ffffb3" stroke="black" points="1569.15,-160.8 1408.85,-160.8 1408.85,-124.8 1569.15,-124.8 1569.15,-160.8"/>
<text text-anchor="middle" x="1489" y="-138.6" font-family="Times,serif" font-size="14.00">FavoriteTasksComponent</text>
</g>
<!-- FavoriteTasksComponent&#45;&gt;AppModule -->
<g id="edge4" class="edge">
<title>FavoriteTasksComponent&#45;&gt;AppModule</title>
<path fill="none" stroke="black" d="M1489,-161.02C1489,-179.63 1489,-205.8 1489,-205.8 1489,-205.8 1112.82,-205.8 1112.82,-205.8"/>
<polygon fill="black" stroke="black" points="1112.82,-202.3 1102.82,-205.8 1112.82,-209.3 1112.82,-202.3"/>
</g>
<!-- FooterComponent -->
<g id="node5" class="node">
<title>FooterComponent</title>
<polygon fill="#ffffb3" stroke="black" points="1390.88,-160.8 1273.12,-160.8 1273.12,-124.8 1390.88,-124.8 1390.88,-160.8"/>
<text text-anchor="middle" x="1332" y="-138.6" font-family="Times,serif" font-size="14.00">FooterComponent</text>
</g>
<!-- FooterComponent&#45;&gt;AppModule -->
<g id="edge5" class="edge">
<title>FooterComponent&#45;&gt;AppModule</title>
<path fill="none" stroke="black" d="M1332,-160.83C1332,-177.86 1332,-200.8 1332,-200.8 1332,-200.8 1112.75,-200.8 1112.75,-200.8"/>
<polygon fill="black" stroke="black" points="1112.75,-197.3 1102.75,-200.8 1112.75,-204.3 1112.75,-197.3"/>
</g>
<!-- LoginComponent -->
<g id="node6" class="node">
<title>LoginComponent</title>
<polygon fill="#ffffb3" stroke="black" points="1255.27,-160.8 1140.73,-160.8 1140.73,-124.8 1255.27,-124.8 1255.27,-160.8"/>
<text text-anchor="middle" x="1198" y="-138.6" font-family="Times,serif" font-size="14.00">LoginComponent</text>
</g>
<!-- LoginComponent&#45;&gt;AppModule -->
<g id="edge6" class="edge">
<title>LoginComponent&#45;&gt;AppModule</title>
<path fill="none" stroke="black" d="M1198,-161.04C1198,-176.37 1198,-195.8 1198,-195.8 1198,-195.8 1112.85,-195.8 1112.85,-195.8"/>
<polygon fill="black" stroke="black" points="1112.85,-192.3 1102.85,-195.8 1112.85,-199.3 1112.85,-192.3"/>
</g>
<!-- NavbarComponent -->
<g id="node7" class="node">
<title>NavbarComponent</title>
<polygon fill="#ffffb3" stroke="black" points="1122.03,-160.8 999.97,-160.8 999.97,-124.8 1122.03,-124.8 1122.03,-160.8"/>
<text text-anchor="middle" x="1061" y="-138.6" font-family="Times,serif" font-size="14.00">NavbarComponent</text>
</g>
<!-- NavbarComponent&#45;&gt;AppModule -->
<g id="edge7" class="edge">
<title>NavbarComponent&#45;&gt;AppModule</title>
<path fill="none" stroke="black" d="M1061,-160.91C1061,-160.91 1061,-179.79 1061,-179.79"/>
<polygon fill="black" stroke="black" points="1057.5,-179.79 1061,-189.79 1064.5,-179.79 1057.5,-179.79"/>
</g>
<!-- RegisterComponent -->
<g id="node8" class="node">
<title>RegisterComponent</title>
<polygon fill="#ffffb3" stroke="black" points="981.99,-160.8 854.01,-160.8 854.01,-124.8 981.99,-124.8 981.99,-160.8"/>
<text text-anchor="middle" x="918" y="-138.6" font-family="Times,serif" font-size="14.00">RegisterComponent</text>
</g>
<!-- RegisterComponent&#45;&gt;AppModule -->
<g id="edge8" class="edge">
<title>RegisterComponent&#45;&gt;AppModule</title>
<path fill="none" stroke="black" d="M918,-161.04C918,-176.37 918,-195.8 918,-195.8 918,-195.8 1009.25,-195.8 1009.25,-195.8"/>
<polygon fill="black" stroke="black" points="1009.25,-199.3 1019.25,-195.8 1009.25,-192.3 1009.25,-199.3"/>
</g>
<!-- SingleTaskComponent -->
<g id="node9" class="node">
<title>SingleTaskComponent</title>
<polygon fill="#ffffb3" stroke="black" points="836.32,-160.8 691.68,-160.8 691.68,-124.8 836.32,-124.8 836.32,-160.8"/>
<text text-anchor="middle" x="764" y="-138.6" font-family="Times,serif" font-size="14.00">SingleTaskComponent</text>
</g>
<!-- SingleTaskComponent&#45;&gt;AppModule -->
<g id="edge9" class="edge">
<title>SingleTaskComponent&#45;&gt;AppModule</title>
<path fill="none" stroke="black" d="M764,-160.83C764,-177.86 764,-200.8 764,-200.8 764,-200.8 1009.08,-200.8 1009.08,-200.8"/>
<polygon fill="black" stroke="black" points="1009.08,-204.3 1019.08,-200.8 1009.08,-197.3 1009.08,-204.3"/>
</g>
<!-- TodoComponent -->
<g id="node10" class="node">
<title>TodoComponent</title>
<polygon fill="#ffffb3" stroke="black" points="673.38,-160.8 562.62,-160.8 562.62,-124.8 673.38,-124.8 673.38,-160.8"/>
<text text-anchor="middle" x="618" y="-138.6" font-family="Times,serif" font-size="14.00">TodoComponent</text>
</g>
<!-- TodoComponent&#45;&gt;AppModule -->
<g id="edge10" class="edge">
<title>TodoComponent&#45;&gt;AppModule</title>
<path fill="none" stroke="black" d="M618,-161.02C618,-179.63 618,-205.8 618,-205.8 618,-205.8 1009.32,-205.8 1009.32,-205.8"/>
<polygon fill="black" stroke="black" points="1009.32,-209.3 1019.32,-205.8 1009.32,-202.3 1009.32,-209.3"/>
</g>
<!-- TodosComponent -->
<g id="node11" class="node">
<title>TodosComponent</title>
<polygon fill="#ffffb3" stroke="black" points="544.33,-160.8 427.67,-160.8 427.67,-124.8 544.33,-124.8 544.33,-160.8"/>
<text text-anchor="middle" x="486" y="-138.6" font-family="Times,serif" font-size="14.00">TodosComponent</text>
</g>
<!-- TodosComponent&#45;&gt;AppModule -->
<g id="edge11" class="edge">
<title>TodosComponent&#45;&gt;AppModule</title>
<path fill="none" stroke="black" d="M486,-161.02C486,-181.17 486,-210.8 486,-210.8 486,-210.8 1009.18,-210.8 1009.18,-210.8"/>
<polygon fill="black" stroke="black" points="1009.18,-214.3 1019.18,-210.8 1009.18,-207.3 1009.18,-214.3"/>
</g>
<!-- AppComponent  -->
<g id="node14" class="node">
<title>AppComponent </title>
<polygon fill="#80b1d3" stroke="black" points="1115.44,-290.8 1006.56,-290.8 1006.56,-254.8 1115.44,-254.8 1115.44,-290.8"/>
<text text-anchor="middle" x="1061" y="-268.6" font-family="Times,serif" font-size="14.00">AppComponent </text>
</g>
<!-- AppModule&#45;&gt;AppComponent  -->
<g id="edge13" class="edge">
<title>AppModule&#45;&gt;AppComponent </title>
<path fill="none" stroke="black" stroke-dasharray="1,5" d="M1061,-225.91C1061,-225.91 1061,-244.79 1061,-244.79"/>
<polygon fill="black" stroke="black" points="1057.5,-244.79 1061,-254.79 1064.5,-244.79 1057.5,-244.79"/>
</g>
<!-- AppRoutingModule -->
<g id="node13" class="node">
<title>AppRoutingModule</title>
<polygon fill="#8dd3c7" stroke="black" points="404.28,-160.8 401.28,-164.8 380.28,-164.8 377.28,-160.8 275.72,-160.8 275.72,-124.8 404.28,-124.8 404.28,-160.8"/>
<text text-anchor="middle" x="340" y="-138.6" font-family="Times,serif" font-size="14.00">AppRoutingModule</text>
</g>
<!-- AppRoutingModule&#45;&gt;AppModule -->
<g id="edge12" class="edge">
<title>AppRoutingModule&#45;&gt;AppModule</title>
<path fill="none" stroke="black" d="M340,-160.84C340,-182.46 340,-215.8 340,-215.8 340,-215.8 1009.12,-215.8 1009.12,-215.8"/>
<polygon fill="black" stroke="black" points="1009.12,-219.3 1019.12,-215.8 1009.12,-212.3 1009.12,-219.3"/>
</g>
<!-- UserInterceptorInterceptor -->
<g id="node15" class="node">
<title>UserInterceptorInterceptor</title>
<ellipse fill="#fdb462" stroke="black" cx="138" cy="-142.8" rx="113.97" ry="18"/>
<text text-anchor="middle" x="138" y="-138.6" font-family="Times,serif" font-size="14.00">UserInterceptorInterceptor</text>
</g>
<!-- UserInterceptorInterceptor&#45;&gt;AppModule -->
<g id="edge14" class="edge">
<title>UserInterceptorInterceptor&#45;&gt;AppModule</title>
<path fill="none" stroke="black" d="M138,-160.89C138,-183.93 138,-220.8 138,-220.8 138,-220.8 1009.25,-220.8 1009.25,-220.8"/>
<polygon fill="black" stroke="black" points="1009.25,-224.3 1019.25,-220.8 1009.25,-217.3 1009.25,-224.3"/>
</g>
<!-- GlobalService -->
<g id="node16" class="node">
<title>GlobalService</title>
<ellipse fill="#fdb462" stroke="black" cx="340" cy="-66.8" rx="66.05" ry="18"/>
<text text-anchor="middle" x="340" y="-62.6" font-family="Times,serif" font-size="14.00">GlobalService</text>
</g>
<!-- GlobalService&#45;&gt;AppRoutingModule -->
<g id="edge15" class="edge">
<title>GlobalService&#45;&gt;AppRoutingModule</title>
<path fill="none" stroke="black" d="M340,-84.81C340,-84.81 340,-114.65 340,-114.65"/>
<polygon fill="black" stroke="black" points="336.5,-114.65 340,-124.65 343.5,-114.65 336.5,-114.65"/>
</g>
</g>
</svg>
