<?xml version="1.0" encoding="UTF-8" standalone="no"?>
<!DOCTYPE svg PUBLIC "-//W3C//DTD SVG 1.1//EN"
 "http://www.w3.org/Graphics/SVG/1.1/DTD/svg11.dtd">
<!-- Generated by graphviz version 5.0.0 (20220707.1540)
 -->
<!-- Title: dependencies Pages: 1 -->
<svg width="2055pt" height="247pt"
 viewBox="0.00 0.00 2055.00 246.80" xmlns="http://www.w3.org/2000/svg" xmlns:xlink="http://www.w3.org/1999/xlink">
<g id="graph0" class="graph" transform="scale(1 1) rotate(0) translate(4 242.8)">
<title>dependencies</title>
<polygon fill="white" stroke="transparent" points="-4,4 -4,-242.8 2051,-242.8 2051,4 -4,4"/>
<text text-anchor="middle" x="1023.5" y="-8.2" font-family="sans-serif" font-size="14.00">dependencies</text>
<g id="clust1" class="cluster">
<title>cluster_AppModule</title>
<polygon fill="none" stroke="black" stroke-dasharray="1,5" points="8,-32.8 8,-230.8 2039,-230.8 2039,-32.8 8,-32.8"/>
</g>
<g id="clust14" class="cluster">
<title>cluster_AppModule_imports</title>
<polygon fill="none" stroke="black" points="1887,-40.8 1887,-92.8 2031,-92.8 2031,-40.8 1887,-40.8"/>
</g>
<g id="clust2" class="cluster">
<title>cluster_AppModule_declarations</title>
<polygon fill="none" stroke="black" points="268,-40.8 268,-92.8 1879,-92.8 1879,-40.8 268,-40.8"/>
</g>
<g id="clust16" class="cluster">
<title>cluster_AppModule_bootstrap</title>
<polygon fill="none" stroke="black" points="984,-170.8 984,-222.8 1108,-222.8 1108,-170.8 984,-170.8"/>
</g>
<g id="clust17" class="cluster">
<title>cluster_AppModule_providers</title>
<polygon fill="none" stroke="black" points="16,-40.8 16,-92.8 260,-92.8 260,-40.8 16,-40.8"/>
</g>
<!-- AppComponent -->
<g id="node1" class="node">
<title>AppComponent</title>
<polygon fill="#ffffb3" stroke="black" points="1870.94,-84.8 1765.06,-84.8 1765.06,-48.8 1870.94,-48.8 1870.94,-84.8"/>
<text text-anchor="middle" x="1818" y="-62.6" font-family="Times,serif" font-size="14.00">AppComponent</text>
</g>
<!-- AppModule -->
<g id="node12" class="node">
<title>AppModule</title>
<polygon fill="#8dd3c7" stroke="black" points="1087.66,-149.8 1084.66,-153.8 1063.66,-153.8 1060.66,-149.8 1004.34,-149.8 1004.34,-113.8 1087.66,-113.8 1087.66,-149.8"/>
<text text-anchor="middle" x="1046" y="-127.6" font-family="Times,serif" font-size="14.00">AppModule</text>
</g>
<!-- AppComponent&#45;&gt;AppModule -->
<g id="edge1" class="edge">
<title>AppComponent&#45;&gt;AppModule</title>
<path fill="none" stroke="black" d="M1818,-84.84C1818,-106.46 1818,-139.8 1818,-139.8 1818,-139.8 1097.78,-139.8 1097.78,-139.8"/>
<polygon fill="black" stroke="black" points="1097.78,-136.3 1087.78,-139.8 1097.78,-143.3 1097.78,-136.3"/>
</g>
<!-- DeletedTasksComponent -->
<g id="node2" class="node">
<title>DeletedTasksComponent</title>
<polygon fill="#ffffb3" stroke="black" points="1747.53,-84.8 1590.47,-84.8 1590.47,-48.8 1747.53,-48.8 1747.53,-84.8"/>
<text text-anchor="middle" x="1669" y="-62.6" font-family="Times,serif" font-size="14.00">DeletedTasksComponent</text>
</g>
<!-- DeletedTasksComponent&#45;&gt;AppModule -->
<g id="edge2" class="edge">
<title>DeletedTasksComponent&#45;&gt;AppModule</title>
<path fill="none" stroke="black" d="M1669,-85.02C1669,-105.17 1669,-134.8 1669,-134.8 1669,-134.8 1097.84,-134.8 1097.84,-134.8"/>
<polygon fill="black" stroke="black" points="1097.84,-131.3 1087.84,-134.8 1097.84,-138.3 1097.84,-131.3"/>
</g>
<!-- ErrorpageComponent -->
<g id="node3" class="node">
<title>ErrorpageComponent</title>
<polygon fill="#ffffb3" stroke="black" points="1572.8,-84.8 1435.2,-84.8 1435.2,-48.8 1572.8,-48.8 1572.8,-84.8"/>
<text text-anchor="middle" x="1504" y="-62.6" font-family="Times,serif" font-size="14.00">ErrorpageComponent</text>
</g>
<!-- ErrorpageComponent&#45;&gt;AppModule -->
<g id="edge3" class="edge">
<title>ErrorpageComponent&#45;&gt;AppModule</title>
<path fill="none" stroke="black" d="M1504,-85.02C1504,-103.63 1504,-129.8 1504,-129.8 1504,-129.8 1097.86,-129.8 1097.86,-129.8"/>
<polygon fill="black" stroke="black" points="1097.86,-126.3 1087.86,-129.8 1097.86,-133.3 1097.86,-126.3"/>
</g>
<!-- FavoriteTasksComponent -->
<g id="node4" class="node">
<title>FavoriteTasksComponent</title>
<polygon fill="#ffffb3" stroke="black" points="1417.15,-84.8 1256.85,-84.8 1256.85,-48.8 1417.15,-48.8 1417.15,-84.8"/>
<text text-anchor="middle" x="1337" y="-62.6" font-family="Times,serif" font-size="14.00">FavoriteTasksComponent</text>
</g>
<!-- FavoriteTasksComponent&#45;&gt;AppModule -->
<g id="edge4" class="edge">
<title>FavoriteTasksComponent&#45;&gt;AppModule</title>
<path fill="none" stroke="black" d="M1337,-84.83C1337,-101.86 1337,-124.8 1337,-124.8 1337,-124.8 1097.69,-124.8 1097.69,-124.8"/>
<polygon fill="black" stroke="black" points="1097.69,-121.3 1087.69,-124.8 1097.69,-128.3 1097.69,-121.3"/>
</g>
<!-- FooterComponent -->
<g id="node5" class="node">
<title>FooterComponent</title>
<polygon fill="#ffffb3" stroke="black" points="1238.88,-84.8 1121.12,-84.8 1121.12,-48.8 1238.88,-48.8 1238.88,-84.8"/>
<text text-anchor="middle" x="1180" y="-62.6" font-family="Times,serif" font-size="14.00">FooterComponent</text>
</g>
<!-- FooterComponent&#45;&gt;AppModule -->
<g id="edge5" class="edge">
<title>FooterComponent&#45;&gt;AppModule</title>
<path fill="none" stroke="black" d="M1180,-85.04C1180,-100.37 1180,-119.8 1180,-119.8 1180,-119.8 1097.66,-119.8 1097.66,-119.8"/>
<polygon fill="black" stroke="black" points="1097.66,-116.3 1087.66,-119.8 1097.66,-123.3 1097.66,-116.3"/>
</g>
<!-- LoginComponent -->
<g id="node6" class="node">
<title>LoginComponent</title>
<polygon fill="#ffffb3" stroke="black" points="1103.27,-84.8 988.73,-84.8 988.73,-48.8 1103.27,-48.8 1103.27,-84.8"/>
<text text-anchor="middle" x="1046" y="-62.6" font-family="Times,serif" font-size="14.00">LoginComponent</text>
</g>
<!-- LoginComponent&#45;&gt;AppModule -->
<g id="edge6" class="edge">
<title>LoginComponent&#45;&gt;AppModule</title>
<path fill="none" stroke="black" d="M1046,-84.91C1046,-84.91 1046,-103.79 1046,-103.79"/>
<polygon fill="black" stroke="black" points="1042.5,-103.79 1046,-113.79 1049.5,-103.79 1042.5,-103.79"/>
</g>
<!-- NavbarComponent -->
<g id="node7" class="node">
<title>NavbarComponent</title>
<polygon fill="#ffffb3" stroke="black" points="970.03,-84.8 847.97,-84.8 847.97,-48.8 970.03,-48.8 970.03,-84.8"/>
<text text-anchor="middle" x="909" y="-62.6" font-family="Times,serif" font-size="14.00">NavbarComponent</text>
</g>
<!-- NavbarComponent&#45;&gt;AppModule -->
<g id="edge7" class="edge">
<title>NavbarComponent&#45;&gt;AppModule</title>
<path fill="none" stroke="black" d="M909,-85.04C909,-100.37 909,-119.8 909,-119.8 909,-119.8 994.15,-119.8 994.15,-119.8"/>
<polygon fill="black" stroke="black" points="994.15,-123.3 1004.15,-119.8 994.15,-116.3 994.15,-123.3"/>
</g>
<!-- RegisterComponent -->
<g id="node8" class="node">
<title>RegisterComponent</title>
<polygon fill="#ffffb3" stroke="black" points="829.99,-84.8 702.01,-84.8 702.01,-48.8 829.99,-48.8 829.99,-84.8"/>
<text text-anchor="middle" x="766" y="-62.6" font-family="Times,serif" font-size="14.00">RegisterComponent</text>
</g>
<!-- RegisterComponent&#45;&gt;AppModule -->
<g id="edge8" class="edge">
<title>RegisterComponent&#45;&gt;AppModule</title>
<path fill="none" stroke="black" d="M766,-84.83C766,-101.86 766,-124.8 766,-124.8 766,-124.8 994.08,-124.8 994.08,-124.8"/>
<polygon fill="black" stroke="black" points="994.08,-128.3 1004.08,-124.8 994.08,-121.3 994.08,-128.3"/>
</g>
<!-- SingleTaskComponent -->
<g id="node9" class="node">
<title>SingleTaskComponent</title>
<polygon fill="#ffffb3" stroke="black" points="684.32,-84.8 539.68,-84.8 539.68,-48.8 684.32,-48.8 684.32,-84.8"/>
<text text-anchor="middle" x="612" y="-62.6" font-family="Times,serif" font-size="14.00">SingleTaskComponent</text>
</g>
<!-- SingleTaskComponent&#45;&gt;AppModule -->
<g id="edge9" class="edge">
<title>SingleTaskComponent&#45;&gt;AppModule</title>
<path fill="none" stroke="black" d="M612,-85.02C612,-103.63 612,-129.8 612,-129.8 612,-129.8 993.99,-129.8 993.99,-129.8"/>
<polygon fill="black" stroke="black" points="993.99,-133.3 1003.99,-129.8 993.99,-126.3 993.99,-133.3"/>
</g>
<!-- TodoComponent -->
<g id="node10" class="node">
<title>TodoComponent</title>
<polygon fill="#ffffb3" stroke="black" points="521.38,-84.8 410.62,-84.8 410.62,-48.8 521.38,-48.8 521.38,-84.8"/>
<text text-anchor="middle" x="466" y="-62.6" font-family="Times,serif" font-size="14.00">TodoComponent</text>
</g>
<!-- TodoComponent&#45;&gt;AppModule -->
<g id="edge10" class="edge">
<title>TodoComponent&#45;&gt;AppModule</title>
<path fill="none" stroke="black" d="M466,-85.02C466,-105.17 466,-134.8 466,-134.8 466,-134.8 994.29,-134.8 994.29,-134.8"/>
<polygon fill="black" stroke="black" points="994.29,-138.3 1004.29,-134.8 994.29,-131.3 994.29,-138.3"/>
</g>
<!-- TodosComponent -->
<g id="node11" class="node">
<title>TodosComponent</title>
<polygon fill="#ffffb3" stroke="black" points="392.33,-84.8 275.67,-84.8 275.67,-48.8 392.33,-48.8 392.33,-84.8"/>
<text text-anchor="middle" x="334" y="-62.6" font-family="Times,serif" font-size="14.00">TodosComponent</text>
</g>
<!-- TodosComponent&#45;&gt;AppModule -->
<g id="edge11" class="edge">
<title>TodosComponent&#45;&gt;AppModule</title>
<path fill="none" stroke="black" d="M334,-84.84C334,-106.46 334,-139.8 334,-139.8 334,-139.8 994.12,-139.8 994.12,-139.8"/>
<polygon fill="black" stroke="black" points="994.12,-143.3 1004.12,-139.8 994.12,-136.3 994.12,-143.3"/>
</g>
<!-- AppComponent  -->
<g id="node14" class="node">
<title>AppComponent </title>
<polygon fill="#80b1d3" stroke="black" points="1100.44,-214.8 991.56,-214.8 991.56,-178.8 1100.44,-178.8 1100.44,-214.8"/>
<text text-anchor="middle" x="1046" y="-192.6" font-family="Times,serif" font-size="14.00">AppComponent </text>
</g>
<!-- AppModule&#45;&gt;AppComponent  -->
<g id="edge13" class="edge">
<title>AppModule&#45;&gt;AppComponent </title>
<path fill="none" stroke="black" stroke-dasharray="1,5" d="M1046,-149.91C1046,-149.91 1046,-168.79 1046,-168.79"/>
<polygon fill="black" stroke="black" points="1042.5,-168.79 1046,-178.79 1049.5,-168.79 1042.5,-168.79"/>
</g>
<!-- AppRoutingModule -->
<g id="node13" class="node">
<title>AppRoutingModule</title>
<polygon fill="#8dd3c7" stroke="black" points="2023.28,-84.8 2020.28,-88.8 1999.28,-88.8 1996.28,-84.8 1894.72,-84.8 1894.72,-48.8 2023.28,-48.8 2023.28,-84.8"/>
<text text-anchor="middle" x="1959" y="-62.6" font-family="Times,serif" font-size="14.00">AppRoutingModule</text>
</g>
<!-- AppRoutingModule&#45;&gt;AppModule -->
<g id="edge12" class="edge">
<title>AppRoutingModule&#45;&gt;AppModule</title>
<path fill="none" stroke="black" d="M1959,-84.89C1959,-107.93 1959,-144.8 1959,-144.8 1959,-144.8 1097.9,-144.8 1097.9,-144.8"/>
<polygon fill="black" stroke="black" points="1097.9,-141.3 1087.9,-144.8 1097.9,-148.3 1097.9,-141.3"/>
</g>
<!-- UserInterceptorInterceptor -->
<g id="node15" class="node">
<title>UserInterceptorInterceptor</title>
<ellipse fill="#fdb462" stroke="black" cx="138" cy="-66.8" rx="113.97" ry="18"/>
<text text-anchor="middle" x="138" y="-62.6" font-family="Times,serif" font-size="14.00">UserInterceptorInterceptor</text>
</g>
<!-- UserInterceptorInterceptor&#45;&gt;AppModule -->
<g id="edge14" class="edge">
<title>UserInterceptorInterceptor&#45;&gt;AppModule</title>
<path fill="none" stroke="black" d="M138,-84.89C138,-107.93 138,-144.8 138,-144.8 138,-144.8 994.33,-144.8 994.33,-144.8"/>
<polygon fill="black" stroke="black" points="994.33,-148.3 1004.33,-144.8 994.33,-141.3 994.33,-148.3"/>
</g>
</g>
</svg>
